<?xml version="1.0" standalone="no"?>
<!DOCTYPE svg PUBLIC "-//W3C//DTD SVG 20010904//EN"
 "http://www.w3.org/TR/2001/REC-SVG-20010904/DTD/svg10.dtd">
<svg version="1.0" xmlns="http://www.w3.org/2000/svg"
 width="260.000000pt" height="260.000000pt" viewBox="0 0 260.000000 260.000000"
 preserveAspectRatio="xMidYMid meet">
<metadata>
Created by potrace 1.11, written by Peter Selinger 2001-2013
</metadata>
<g transform="translate(0.000000,260.000000) scale(0.100000,-0.100000)"
fill="#000000" stroke="none">
<path d="M0 2485 c0 -63 3 -115 8 -115 9 1 222 215 222 224 0 3 -52 6 -115 6
l-115 0 0 -115z"/>
<path d="M381 2219 l-381 -382 0 -235 0 -235 21 19 c28 25 1168 1165 1193
1193 l19 21 -235 0 -235 0 -382 -381z"/>
<path d="M879 1721 l-879 -879 0 -236 c0 -130 3 -236 6 -236 8 0 2224 2216
2224 2224 0 3 -106 6 -236 6 l-236 0 -879 -879z"/>
<path d="M1393 1230 c-660 -660 -1206 -1207 -1213 -1215 -11 -13 14 -15 223
-15 l234 0 982 981 981 982 0 233 c0 129 -2 234 -4 234 -2 0 -543 -540 -1203
-1200z"/>
<path d="M1878 721 c-390 -390 -708 -711 -708 -715 0 -3 106 -6 236 -6 l236 0
479 479 479 479 0 236 c0 130 -3 236 -7 236 -5 -1 -326 -320 -715 -709z"/>
<path d="M2381 219 l-213 -214 212 -3 c117 -1 215 -1 217 1 2 2 2 100 1 217
l-3 212 -214 -213z"/>
</g>
</svg>
